<?xml version="1.0" standalone="no"?>
<!DOCTYPE svg PUBLIC "-//W3C//DTD SVG 20010904//EN"
 "http://www.w3.org/TR/2001/REC-SVG-20010904/DTD/svg10.dtd">
<svg version="1.0" xmlns="http://www.w3.org/2000/svg"
 width="390.000000pt" height="390.000000pt" viewBox="0 0 390.000000 390.000000"
 preserveAspectRatio="xMidYMid meet">
<metadata>
Created by potrace 1.14, written by Peter Selinger 2001-2017
</metadata>
<g transform="translate(0.000000,390.000000) scale(0.100000,-0.100000)"
fill="#000000" stroke="none">
<path d="M1479 3700 c-127 -26 -192 -47 -302 -95 -154 -68 -241 -123 -397
-249 -119 -97 -152 -129 -234 -231 -175 -217 -284 -418 -342 -630 -31 -116
-34 -131 -50 -282 -19 -176 -13 -237 35 -340 32 -67 27 -83 -9 -33 -12 17 -26
30 -31 30 -14 0 -11 -179 7 -297 42 -288 138 -513 323 -752 219 -283 572 -533
833 -590 54 -12 131 -21 171 -21 102 0 266 32 362 70 366 145 592 413 646 767
21 142 -17 284 -117 435 -43 64 -74 94 -183 172 -23 17 -41 35 -41 42 0 6 -9
22 -20 35 l-19 24 -1 -95 c-1 -180 -27 -284 -101 -400 -118 -185 -281 -286
-480 -298 -235 -13 -446 67 -721 273 -286 215 -435 443 -440 671 -2 77 8 120
39 169 71 112 137 120 430 51 230 -54 470 -70 638 -40 49 8 93 18 98 21 4 2
-12 26 -37 52 -51 56 -77 103 -101 185 -10 33 -55 136 -101 230 -110 222 -118
250 -111 390 8 164 47 272 153 422 91 130 209 231 337 289 31 15 57 31 57 36
0 16 -200 9 -291 -11z"/>
<path d="M2179 3640 c-122 -27 -227 -72 -394 -166 -101 -57 -279 -236 -327
-329 -64 -126 -80 -186 -86 -332 -7 -194 13 -275 103 -413 56 -86 101 -133
210 -220 50 -39 94 -78 98 -86 4 -8 15 -14 24 -14 13 0 14 7 9 38 -30 178 -30
241 1 352 37 132 141 268 262 345 123 77 309 97 487 51 262 -67 679 -362 810
-572 94 -151 128 -284 100 -394 -48 -187 -145 -241 -366 -206 -58 9 -159 26
-225 36 -244 39 -450 37 -553 -6 l-34 -14 39 -44 c51 -58 104 -156 142 -263
31 -85 53 -132 121 -258 l32 -60 -5 -125 c-11 -242 -95 -422 -281 -597 -74
-70 -109 -94 -192 -134 -56 -27 -107 -49 -113 -49 -6 0 -11 -4 -11 -9 0 -15
126 -24 235 -18 254 16 576 157 860 379 109 85 247 238 330 367 139 216 249
556 262 808 6 131 0 172 -44 272 -39 91 -20 82 37 -18 4 -8 13 -10 20 -6 22
14 -3 292 -41 455 -52 221 -185 501 -315 663 -348 433 -813 654 -1195 567z"/>
</g>
</svg>
